<mxfile host="Electron" agent="Mozilla/5.0 (Windows NT 10.0; Win64; x64) AppleWebKit/537.36 (KHTML, like Gecko) draw.io/24.7.5 Chrome/126.0.6478.183 Electron/31.3.0 Safari/537.36" version="24.7.5" pages="2">
  <diagram name="flow" id="S9pNJZ_9UTfIT9k5W0XH">
    <mxGraphModel dx="1050" dy="629" grid="1" gridSize="10" guides="1" tooltips="1" connect="1" arrows="1" fold="1" page="1" pageScale="1" pageWidth="850" pageHeight="1100" math="0" shadow="0">
      <root>
        <mxCell id="0" />
        <mxCell id="1" parent="0" />
        <mxCell id="RmG6X6IHTSob1Pd5PJPL-1" value="aadsfsdf" style="whiteSpace=wrap;html=1;aspect=fixed;fillColor=#000000;rounded=0;glass=0;shadow=0;" parent="1" vertex="1">
          <mxGeometry x="80" y="160" width="200" height="200" as="geometry" />
        </mxCell>
        <mxCell id="RmG6X6IHTSob1Pd5PJPL-2" value="&lt;font color=&quot;#ffffff&quot;&gt;welcome to chat app&lt;/font&gt;" style="text;strokeColor=none;align=center;fillColor=none;html=1;verticalAlign=middle;whiteSpace=wrap;rounded=0;glass=0;shadow=0;" parent="1" vertex="1">
          <mxGeometry x="80" y="160" width="200" height="30" as="geometry" />
        </mxCell>
        <mxCell id="RmG6X6IHTSob1Pd5PJPL-4" value="&lt;font color=&quot;#ffffff&quot;&gt;[1] register&lt;/font&gt;&lt;div&gt;&lt;font color=&quot;#ffffff&quot;&gt;[2] sign in&lt;/font&gt;&lt;/div&gt;" style="text;strokeColor=none;align=left;fillColor=none;html=1;verticalAlign=middle;whiteSpace=wrap;rounded=0;glass=0;shadow=0;" parent="1" vertex="1">
          <mxGeometry x="80" y="190" width="200" height="30" as="geometry" />
        </mxCell>
        <mxCell id="RmG6X6IHTSob1Pd5PJPL-5" value="aadsfsdf" style="whiteSpace=wrap;html=1;aspect=fixed;fillColor=#000000;rounded=0;glass=0;shadow=0;" parent="1" vertex="1">
          <mxGeometry x="320" y="160" width="200" height="200" as="geometry" />
        </mxCell>
        <mxCell id="RmG6X6IHTSob1Pd5PJPL-6" value="&lt;font color=&quot;#ffffff&quot;&gt;username:&lt;/font&gt;&lt;div&gt;&lt;font color=&quot;#ffffff&quot;&gt;|&lt;/font&gt;&lt;/div&gt;&lt;div&gt;&lt;font color=&quot;#ffffff&quot;&gt;password:&lt;/font&gt;&lt;/div&gt;&lt;div&gt;&lt;font color=&quot;#ffffff&quot;&gt;|&lt;/font&gt;&lt;/div&gt;" style="text;strokeColor=none;align=left;fillColor=none;html=1;verticalAlign=middle;whiteSpace=wrap;rounded=0;glass=0;shadow=0;" parent="1" vertex="1">
          <mxGeometry x="320" y="160" width="200" height="60" as="geometry" />
        </mxCell>
        <mxCell id="RmG6X6IHTSob1Pd5PJPL-7" value="aadsfsdf" style="whiteSpace=wrap;html=1;aspect=fixed;fillColor=#000000;rounded=0;glass=0;shadow=0;" parent="1" vertex="1">
          <mxGeometry x="550" y="160" width="200" height="200" as="geometry" />
        </mxCell>
        <mxCell id="RmG6X6IHTSob1Pd5PJPL-8" value="&lt;font color=&quot;#ffffff&quot;&gt;logged in!&lt;/font&gt;" style="text;strokeColor=none;align=left;fillColor=none;html=1;verticalAlign=middle;whiteSpace=wrap;rounded=0;glass=0;shadow=0;" parent="1" vertex="1">
          <mxGeometry x="550" y="160" width="200" height="20" as="geometry" />
        </mxCell>
        <mxCell id="RmG6X6IHTSob1Pd5PJPL-9" value="aadsfsdf" style="whiteSpace=wrap;html=1;aspect=fixed;fillColor=#000000;rounded=0;glass=0;shadow=0;" parent="1" vertex="1">
          <mxGeometry x="80" y="400" width="200" height="200" as="geometry" />
        </mxCell>
        <mxCell id="RmG6X6IHTSob1Pd5PJPL-10" value="&lt;div&gt;&lt;font color=&quot;#ffffff&quot;&gt;[1] chats&lt;/font&gt;&lt;/div&gt;&lt;div&gt;&lt;font color=&quot;#ffffff&quot;&gt;[2] group chats&lt;/font&gt;&lt;/div&gt;&lt;div&gt;&lt;font color=&quot;#ffffff&quot;&gt;[3&lt;/font&gt;&lt;span style=&quot;color: rgb(255, 255, 255); background-color: initial;&quot;&gt;] search for users&lt;/span&gt;&lt;/div&gt;" style="text;strokeColor=none;align=left;fillColor=none;html=1;verticalAlign=middle;whiteSpace=wrap;rounded=0;glass=0;shadow=0;" parent="1" vertex="1">
          <mxGeometry x="80" y="400" width="200" height="60" as="geometry" />
        </mxCell>
        <mxCell id="RmG6X6IHTSob1Pd5PJPL-12" value="&lt;font color=&quot;#ffffff&quot;&gt;Friends&lt;/font&gt;" style="text;strokeColor=none;align=center;fillColor=none;html=1;verticalAlign=middle;whiteSpace=wrap;rounded=0;glass=0;shadow=0;" parent="1" vertex="1">
          <mxGeometry x="320" y="400" width="200" height="20" as="geometry" />
        </mxCell>
        <mxCell id="RmG6X6IHTSob1Pd5PJPL-14" value="aadsfsdf" style="whiteSpace=wrap;html=1;aspect=fixed;fillColor=#000000;rounded=0;glass=0;shadow=0;" parent="1" vertex="1">
          <mxGeometry x="320" y="400" width="200" height="200" as="geometry" />
        </mxCell>
        <mxCell id="RmG6X6IHTSob1Pd5PJPL-15" value="&lt;span style=&quot;color: rgb(255, 255, 255); text-align: left;&quot;&gt;Ahmed Saed&#39;s Chat&lt;/span&gt;" style="text;strokeColor=none;align=center;fillColor=none;html=1;verticalAlign=middle;whiteSpace=wrap;rounded=0;glass=0;shadow=0;" parent="1" vertex="1">
          <mxGeometry x="320" y="400" width="200" height="20" as="geometry" />
        </mxCell>
        <mxCell id="RmG6X6IHTSob1Pd5PJPL-16" value="&lt;span style=&quot;color: rgb(255, 255, 255);&quot;&gt;Ahmed: ----------&lt;/span&gt;&lt;div&gt;&lt;span style=&quot;color: rgb(255, 255, 255);&quot;&gt;Ahmed: --------&lt;/span&gt;&lt;span style=&quot;color: rgb(255, 255, 255);&quot;&gt;&lt;br&gt;&lt;/span&gt;&lt;/div&gt;&lt;div&gt;&lt;font color=&quot;#ffffff&quot;&gt;You: ----------&lt;/font&gt;&lt;/div&gt;&lt;div&gt;&lt;span style=&quot;color: rgb(255, 255, 255);&quot;&gt;Ahmed: ----&lt;/span&gt;&lt;font color=&quot;#ffffff&quot;&gt;&lt;br&gt;&lt;/font&gt;&lt;/div&gt;&lt;div&gt;&lt;span style=&quot;color: rgb(255, 255, 255);&quot;&gt;|&lt;/span&gt;&lt;/div&gt;" style="text;strokeColor=none;align=left;fillColor=none;html=1;verticalAlign=middle;whiteSpace=wrap;rounded=0;glass=0;shadow=0;" parent="1" vertex="1">
          <mxGeometry x="320" y="420" width="200" height="80" as="geometry" />
        </mxCell>
        <mxCell id="RmG6X6IHTSob1Pd5PJPL-17" value="aadsfsdf" style="whiteSpace=wrap;html=1;aspect=fixed;fillColor=#000000;rounded=0;glass=0;shadow=0;" parent="1" vertex="1">
          <mxGeometry x="550" y="400" width="200" height="200" as="geometry" />
        </mxCell>
        <mxCell id="RmG6X6IHTSob1Pd5PJPL-18" value="&lt;span style=&quot;color: rgb(255, 255, 255); text-align: left;&quot;&gt;Chats&lt;/span&gt;" style="text;strokeColor=none;align=center;fillColor=none;html=1;verticalAlign=middle;whiteSpace=wrap;rounded=0;glass=0;shadow=0;" parent="1" vertex="1">
          <mxGeometry x="550" y="400" width="200" height="20" as="geometry" />
        </mxCell>
        <mxCell id="RmG6X6IHTSob1Pd5PJPL-19" value="&lt;font color=&quot;#ffffff&quot;&gt;[1] Ahmed Saed&lt;/font&gt;&lt;div&gt;&lt;span style=&quot;color: rgb(255, 255, 255);&quot;&gt;[2] __&lt;/span&gt;&lt;/div&gt;" style="text;strokeColor=none;align=left;fillColor=none;html=1;verticalAlign=middle;whiteSpace=wrap;rounded=0;glass=0;shadow=0;" parent="1" vertex="1">
          <mxGeometry x="550" y="420" width="200" height="40" as="geometry" />
        </mxCell>
        <mxCell id="RmG6X6IHTSob1Pd5PJPL-20" value="aadsfsdf" style="whiteSpace=wrap;html=1;aspect=fixed;fillColor=#000000;rounded=0;glass=0;shadow=0;" parent="1" vertex="1">
          <mxGeometry x="80" y="880" width="200" height="200" as="geometry" />
        </mxCell>
        <mxCell id="RmG6X6IHTSob1Pd5PJPL-21" value="&lt;span style=&quot;color: rgb(255, 255, 255); text-align: left;&quot;&gt;Group Chats&lt;/span&gt;" style="text;strokeColor=none;align=center;fillColor=none;html=1;verticalAlign=middle;whiteSpace=wrap;rounded=0;glass=0;shadow=0;" parent="1" vertex="1">
          <mxGeometry x="80" y="880" width="200" height="20" as="geometry" />
        </mxCell>
        <mxCell id="RmG6X6IHTSob1Pd5PJPL-22" value="&lt;font color=&quot;#ffffff&quot;&gt;[1] bug squash gang&lt;/font&gt;&lt;div&gt;&lt;span style=&quot;color: rgb(255, 255, 255);&quot;&gt;[2] __&lt;/span&gt;&lt;/div&gt;&lt;div&gt;&lt;span style=&quot;color: rgb(255, 255, 255);&quot;&gt;[0] create group chat&lt;/span&gt;&lt;/div&gt;" style="text;strokeColor=none;align=left;fillColor=none;html=1;verticalAlign=middle;whiteSpace=wrap;rounded=0;glass=0;shadow=0;" parent="1" vertex="1">
          <mxGeometry x="80" y="900" width="200" height="50" as="geometry" />
        </mxCell>
        <mxCell id="RmG6X6IHTSob1Pd5PJPL-23" value="aadsfsdf" style="whiteSpace=wrap;html=1;aspect=fixed;fillColor=#000000;rounded=0;glass=0;shadow=0;" parent="1" vertex="1">
          <mxGeometry x="320" y="880" width="200" height="200" as="geometry" />
        </mxCell>
        <mxCell id="RmG6X6IHTSob1Pd5PJPL-24" value="&lt;span style=&quot;color: rgb(255, 255, 255); text-align: left;&quot;&gt;Create Group Chat&lt;/span&gt;" style="text;strokeColor=none;align=center;fillColor=none;html=1;verticalAlign=middle;whiteSpace=wrap;rounded=0;glass=0;shadow=0;" parent="1" vertex="1">
          <mxGeometry x="320" y="880" width="200" height="20" as="geometry" />
        </mxCell>
        <mxCell id="RmG6X6IHTSob1Pd5PJPL-25" value="&lt;font color=&quot;#ffffff&quot;&gt;Name:&lt;/font&gt;&lt;div&gt;&lt;font color=&quot;#ffffff&quot;&gt;|&lt;/font&gt;&lt;/div&gt;&lt;div&gt;&lt;font color=&quot;#ffffff&quot;&gt;Members separated by comma &#39;,&#39;:&lt;/font&gt;&lt;/div&gt;&lt;div&gt;&lt;font color=&quot;#ffffff&quot;&gt;Ahmed Saed, Omar Elnaggar, ...&lt;/font&gt;&lt;/div&gt;" style="text;strokeColor=none;align=left;fillColor=none;html=1;verticalAlign=middle;whiteSpace=wrap;rounded=0;glass=0;shadow=0;" parent="1" vertex="1">
          <mxGeometry x="320" y="900" width="200" height="70" as="geometry" />
        </mxCell>
        <mxCell id="RmG6X6IHTSob1Pd5PJPL-26" value="sdasd" style="whiteSpace=wrap;html=1;aspect=fixed;fillColor=#000000;rounded=0;glass=0;shadow=0;" parent="1" vertex="1">
          <mxGeometry x="550" y="880" width="200" height="200" as="geometry" />
        </mxCell>
        <mxCell id="RmG6X6IHTSob1Pd5PJPL-27" value="&lt;span style=&quot;color: rgb(255, 255, 255); text-align: left;&quot;&gt;bug squash gang&lt;/span&gt;" style="text;strokeColor=none;align=center;fillColor=none;html=1;verticalAlign=middle;whiteSpace=wrap;rounded=0;glass=0;shadow=0;" parent="1" vertex="1">
          <mxGeometry x="550" y="880" width="200" height="20" as="geometry" />
        </mxCell>
        <mxCell id="RmG6X6IHTSob1Pd5PJPL-29" value="&lt;span style=&quot;color: rgb(255, 255, 255);&quot;&gt;Ali: ----------&lt;/span&gt;&lt;div&gt;&lt;span style=&quot;color: rgb(255, 255, 255);&quot;&gt;Omar: --------&lt;/span&gt;&lt;span style=&quot;color: rgb(255, 255, 255);&quot;&gt;&lt;br&gt;&lt;/span&gt;&lt;/div&gt;&lt;div&gt;&lt;font color=&quot;#ffffff&quot;&gt;You: ----------&lt;/font&gt;&lt;/div&gt;&lt;div&gt;&lt;span style=&quot;color: rgb(255, 255, 255);&quot;&gt;Ahmed: ----&lt;/span&gt;&lt;font color=&quot;#ffffff&quot;&gt;&lt;br&gt;&lt;/font&gt;&lt;/div&gt;&lt;div&gt;&lt;span style=&quot;color: rgb(255, 255, 255);&quot;&gt;|&lt;/span&gt;&lt;/div&gt;" style="text;strokeColor=none;align=left;fillColor=none;html=1;verticalAlign=middle;whiteSpace=wrap;rounded=0;glass=0;shadow=0;" parent="1" vertex="1">
          <mxGeometry x="550" y="910" width="200" height="80" as="geometry" />
        </mxCell>
        <mxCell id="RmG6X6IHTSob1Pd5PJPL-30" value="sdasd" style="whiteSpace=wrap;html=1;aspect=fixed;fillColor=#000000;rounded=0;glass=0;shadow=0;" parent="1" vertex="1">
          <mxGeometry x="320" y="640" width="200" height="200" as="geometry" />
        </mxCell>
        <mxCell id="RmG6X6IHTSob1Pd5PJPL-31" value="&lt;span style=&quot;color: rgb(255, 255, 255); text-align: left;&quot;&gt;search for user&lt;/span&gt;" style="text;strokeColor=none;align=center;fillColor=none;html=1;verticalAlign=middle;whiteSpace=wrap;rounded=0;glass=0;shadow=0;" parent="1" vertex="1">
          <mxGeometry x="320" y="640" width="200" height="20" as="geometry" />
        </mxCell>
        <mxCell id="RmG6X6IHTSob1Pd5PJPL-32" value="&lt;font color=&quot;#ffffff&quot;&gt;user:&lt;/font&gt;&lt;div&gt;&lt;font color=&quot;#ffffff&quot;&gt;|&lt;/font&gt;&lt;/div&gt;" style="text;strokeColor=none;align=left;fillColor=none;html=1;verticalAlign=middle;whiteSpace=wrap;rounded=0;glass=0;shadow=0;" parent="1" vertex="1">
          <mxGeometry x="320" y="670" width="200" height="30" as="geometry" />
        </mxCell>
        <mxCell id="i1bc9mN1Af63x4QW60fl-1" value="&lt;b&gt;THINK OF PAGEING&lt;/b&gt;" style="text;strokeColor=none;align=center;fillColor=none;html=1;verticalAlign=middle;whiteSpace=wrap;rounded=0;" vertex="1" parent="1">
          <mxGeometry x="60" y="730" width="180" height="70" as="geometry" />
        </mxCell>
      </root>
    </mxGraphModel>
  </diagram>
  <diagram id="ap2QQREWE0HZXKKDFxOF" name="diagram">
    <mxGraphModel dx="840" dy="503" grid="1" gridSize="10" guides="1" tooltips="1" connect="1" arrows="1" fold="1" page="1" pageScale="1" pageWidth="850" pageHeight="1100" math="0" shadow="0">
      <root>
        <mxCell id="0" />
        <mxCell id="1" parent="0" />
        <mxCell id="KyC4aERlqUaMEb7XsHU6-4" value="username" style="rounded=0;whiteSpace=wrap;html=1;" parent="1" vertex="1">
          <mxGeometry x="40" y="120" width="80" height="20" as="geometry" />
        </mxCell>
        <mxCell id="KyC4aERlqUaMEb7XsHU6-5" value="pass" style="rounded=0;whiteSpace=wrap;html=1;" parent="1" vertex="1">
          <mxGeometry x="40" y="140" width="80" height="20" as="geometry" />
        </mxCell>
        <mxCell id="KyC4aERlqUaMEb7XsHU6-6" value="id" style="rounded=0;whiteSpace=wrap;html=1;" parent="1" vertex="1">
          <mxGeometry x="40" y="100" width="80" height="20" as="geometry" />
        </mxCell>
        <mxCell id="KyC4aERlqUaMEb7XsHU6-7" value="&lt;b&gt;User&lt;/b&gt;" style="rounded=0;whiteSpace=wrap;html=1;fillColor=#f8cecc;strokeColor=#b85450;" parent="1" vertex="1">
          <mxGeometry x="40" y="80" width="80" height="20" as="geometry" />
        </mxCell>
        <mxCell id="ocXlqBQaO6Xop0NSyWe3-2" value="&lt;b&gt;Message&lt;/b&gt;" style="rounded=0;whiteSpace=wrap;html=1;fillColor=#f8cecc;strokeColor=#b85450;" vertex="1" parent="1">
          <mxGeometry x="200" y="80" width="80" height="20" as="geometry" />
        </mxCell>
        <mxCell id="ocXlqBQaO6Xop0NSyWe3-3" value="id" style="rounded=0;whiteSpace=wrap;html=1;" vertex="1" parent="1">
          <mxGeometry x="200" y="100" width="80" height="20" as="geometry" />
        </mxCell>
        <mxCell id="ocXlqBQaO6Xop0NSyWe3-4" value="content" style="rounded=0;whiteSpace=wrap;html=1;" vertex="1" parent="1">
          <mxGeometry x="200" y="120" width="80" height="20" as="geometry" />
        </mxCell>
        <mxCell id="ocXlqBQaO6Xop0NSyWe3-5" value="createdDate" style="rounded=0;whiteSpace=wrap;html=1;" vertex="1" parent="1">
          <mxGeometry x="200" y="140" width="80" height="20" as="geometry" />
        </mxCell>
        <mxCell id="ocXlqBQaO6Xop0NSyWe3-8" style="edgeStyle=orthogonalEdgeStyle;rounded=0;orthogonalLoop=1;jettySize=auto;html=1;entryX=1;entryY=0.5;entryDx=0;entryDy=0;" edge="1" parent="1" source="ocXlqBQaO6Xop0NSyWe3-6" target="KyC4aERlqUaMEb7XsHU6-6">
          <mxGeometry relative="1" as="geometry" />
        </mxCell>
        <mxCell id="ocXlqBQaO6Xop0NSyWe3-6" value="senderId" style="rounded=0;whiteSpace=wrap;html=1;" vertex="1" parent="1">
          <mxGeometry x="200" y="160" width="80" height="20" as="geometry" />
        </mxCell>
        <mxCell id="ocXlqBQaO6Xop0NSyWe3-9" style="edgeStyle=orthogonalEdgeStyle;rounded=0;orthogonalLoop=1;jettySize=auto;html=1;entryX=1;entryY=0.5;entryDx=0;entryDy=0;" edge="1" parent="1" source="ocXlqBQaO6Xop0NSyWe3-7" target="KyC4aERlqUaMEb7XsHU6-6">
          <mxGeometry relative="1" as="geometry" />
        </mxCell>
        <mxCell id="ocXlqBQaO6Xop0NSyWe3-7" value="receiverId?" style="rounded=0;whiteSpace=wrap;html=1;" vertex="1" parent="1">
          <mxGeometry x="200" y="180" width="80" height="20" as="geometry" />
        </mxCell>
        <mxCell id="TDs0_VGNjXDJmlck_7jA-7" style="edgeStyle=orthogonalEdgeStyle;rounded=0;orthogonalLoop=1;jettySize=auto;html=1;entryX=0;entryY=0.5;entryDx=0;entryDy=0;" edge="1" parent="1" source="TDs0_VGNjXDJmlck_7jA-1" target="TDs0_VGNjXDJmlck_7jA-3">
          <mxGeometry relative="1" as="geometry" />
        </mxCell>
        <mxCell id="TDs0_VGNjXDJmlck_7jA-1" value="groupId?" style="rounded=0;whiteSpace=wrap;html=1;" vertex="1" parent="1">
          <mxGeometry x="200" y="200" width="80" height="20" as="geometry" />
        </mxCell>
        <mxCell id="TDs0_VGNjXDJmlck_7jA-2" value="&lt;b&gt;Group&lt;/b&gt;" style="rounded=0;whiteSpace=wrap;html=1;fillColor=#f8cecc;strokeColor=#b85450;" vertex="1" parent="1">
          <mxGeometry x="320" y="80" width="80" height="20" as="geometry" />
        </mxCell>
        <mxCell id="TDs0_VGNjXDJmlck_7jA-3" value="id" style="rounded=0;whiteSpace=wrap;html=1;" vertex="1" parent="1">
          <mxGeometry x="320" y="100" width="80" height="20" as="geometry" />
        </mxCell>
        <mxCell id="TDs0_VGNjXDJmlck_7jA-4" value="name" style="rounded=0;whiteSpace=wrap;html=1;" vertex="1" parent="1">
          <mxGeometry x="320" y="120" width="80" height="20" as="geometry" />
        </mxCell>
        <mxCell id="TDs0_VGNjXDJmlck_7jA-5" value="createdDate" style="rounded=0;whiteSpace=wrap;html=1;" vertex="1" parent="1">
          <mxGeometry x="320" y="140" width="80" height="20" as="geometry" />
        </mxCell>
        <mxCell id="TDs0_VGNjXDJmlck_7jA-8" value="&lt;b&gt;UserGroup&lt;/b&gt;" style="rounded=0;whiteSpace=wrap;html=1;fillColor=#f8cecc;strokeColor=#b85450;" vertex="1" parent="1">
          <mxGeometry x="200" y="260" width="80" height="20" as="geometry" />
        </mxCell>
        <mxCell id="TDs0_VGNjXDJmlck_7jA-11" style="edgeStyle=orthogonalEdgeStyle;rounded=0;orthogonalLoop=1;jettySize=auto;html=1;entryX=1;entryY=0.5;entryDx=0;entryDy=0;" edge="1" parent="1" source="TDs0_VGNjXDJmlck_7jA-9" target="KyC4aERlqUaMEb7XsHU6-6">
          <mxGeometry relative="1" as="geometry" />
        </mxCell>
        <mxCell id="TDs0_VGNjXDJmlck_7jA-9" value="userId" style="rounded=0;whiteSpace=wrap;html=1;" vertex="1" parent="1">
          <mxGeometry x="200" y="280" width="80" height="20" as="geometry" />
        </mxCell>
        <mxCell id="TDs0_VGNjXDJmlck_7jA-12" style="edgeStyle=orthogonalEdgeStyle;rounded=0;orthogonalLoop=1;jettySize=auto;html=1;entryX=0;entryY=0.5;entryDx=0;entryDy=0;" edge="1" parent="1" source="TDs0_VGNjXDJmlck_7jA-10" target="TDs0_VGNjXDJmlck_7jA-3">
          <mxGeometry relative="1" as="geometry" />
        </mxCell>
        <mxCell id="TDs0_VGNjXDJmlck_7jA-10" value="groupId" style="rounded=0;whiteSpace=wrap;html=1;" vertex="1" parent="1">
          <mxGeometry x="200" y="300" width="80" height="20" as="geometry" />
        </mxCell>
        <mxCell id="TDs0_VGNjXDJmlck_7jA-26" value="" style="edgeStyle=orthogonalEdgeStyle;rounded=0;orthogonalLoop=1;jettySize=auto;html=1;entryX=0;entryY=0.5;entryDx=0;entryDy=0;" edge="1" parent="1" source="TDs0_VGNjXDJmlck_7jA-13" target="TDs0_VGNjXDJmlck_7jA-25">
          <mxGeometry relative="1" as="geometry">
            <Array as="points">
              <mxPoint x="520" y="85" />
            </Array>
          </mxGeometry>
        </mxCell>
        <mxCell id="TDs0_VGNjXDJmlck_7jA-30" style="edgeStyle=orthogonalEdgeStyle;rounded=0;orthogonalLoop=1;jettySize=auto;html=1;entryX=0;entryY=0.5;entryDx=0;entryDy=0;" edge="1" parent="1" source="TDs0_VGNjXDJmlck_7jA-13" target="TDs0_VGNjXDJmlck_7jA-29">
          <mxGeometry relative="1" as="geometry" />
        </mxCell>
        <mxCell id="TDs0_VGNjXDJmlck_7jA-39" style="edgeStyle=orthogonalEdgeStyle;rounded=0;orthogonalLoop=1;jettySize=auto;html=1;entryX=0.5;entryY=0;entryDx=0;entryDy=0;" edge="1" parent="1" source="TDs0_VGNjXDJmlck_7jA-13" target="TDs0_VGNjXDJmlck_7jA-38">
          <mxGeometry relative="1" as="geometry" />
        </mxCell>
        <mxCell id="TDs0_VGNjXDJmlck_7jA-13" value="&lt;b&gt;USER&lt;/b&gt;" style="whiteSpace=wrap;html=1;aspect=fixed;" vertex="1" parent="1">
          <mxGeometry x="480" y="120" width="80" height="80" as="geometry" />
        </mxCell>
        <mxCell id="TDs0_VGNjXDJmlck_7jA-14" value="&lt;b&gt;MESSAGE&lt;/b&gt;" style="whiteSpace=wrap;html=1;aspect=fixed;" vertex="1" parent="1">
          <mxGeometry x="760" y="120" width="80" height="80" as="geometry" />
        </mxCell>
        <mxCell id="TDs0_VGNjXDJmlck_7jA-44" style="edgeStyle=orthogonalEdgeStyle;rounded=0;orthogonalLoop=1;jettySize=auto;html=1;entryX=0.5;entryY=1;entryDx=0;entryDy=0;" edge="1" parent="1" source="TDs0_VGNjXDJmlck_7jA-15" target="TDs0_VGNjXDJmlck_7jA-43">
          <mxGeometry relative="1" as="geometry" />
        </mxCell>
        <mxCell id="TDs0_VGNjXDJmlck_7jA-15" value="&lt;b&gt;GROUP&lt;/b&gt;" style="whiteSpace=wrap;html=1;aspect=fixed;" vertex="1" parent="1">
          <mxGeometry x="630" y="280" width="80" height="80" as="geometry" />
        </mxCell>
        <mxCell id="TDs0_VGNjXDJmlck_7jA-27" style="edgeStyle=orthogonalEdgeStyle;rounded=0;orthogonalLoop=1;jettySize=auto;html=1;entryX=0.5;entryY=0;entryDx=0;entryDy=0;" edge="1" parent="1" source="TDs0_VGNjXDJmlck_7jA-25" target="TDs0_VGNjXDJmlck_7jA-14">
          <mxGeometry relative="1" as="geometry">
            <Array as="points">
              <mxPoint x="800" y="85" />
            </Array>
          </mxGeometry>
        </mxCell>
        <mxCell id="TDs0_VGNjXDJmlck_7jA-25" value="send" style="rhombus;whiteSpace=wrap;html=1;" vertex="1" parent="1">
          <mxGeometry x="640" y="60" width="50" height="50" as="geometry" />
        </mxCell>
        <mxCell id="TDs0_VGNjXDJmlck_7jA-32" style="edgeStyle=orthogonalEdgeStyle;rounded=0;orthogonalLoop=1;jettySize=auto;html=1;entryX=0;entryY=0.5;entryDx=0;entryDy=0;" edge="1" parent="1" source="TDs0_VGNjXDJmlck_7jA-29" target="TDs0_VGNjXDJmlck_7jA-14">
          <mxGeometry relative="1" as="geometry" />
        </mxCell>
        <mxCell id="TDs0_VGNjXDJmlck_7jA-29" value="receive" style="rhombus;whiteSpace=wrap;html=1;" vertex="1" parent="1">
          <mxGeometry x="640" y="135" width="50" height="50" as="geometry" />
        </mxCell>
        <mxCell id="TDs0_VGNjXDJmlck_7jA-33" value="1" style="text;strokeColor=none;align=center;fillColor=none;html=1;verticalAlign=middle;whiteSpace=wrap;rounded=0;" vertex="1" parent="1">
          <mxGeometry x="500" y="105" width="20" height="10" as="geometry" />
        </mxCell>
        <mxCell id="TDs0_VGNjXDJmlck_7jA-35" value="M" style="text;strokeColor=none;align=center;fillColor=none;html=1;verticalAlign=middle;whiteSpace=wrap;rounded=0;" vertex="1" parent="1">
          <mxGeometry x="800" y="105" width="20" height="10" as="geometry" />
        </mxCell>
        <mxCell id="TDs0_VGNjXDJmlck_7jA-36" value="1" style="text;strokeColor=none;align=center;fillColor=none;html=1;verticalAlign=middle;whiteSpace=wrap;rounded=0;" vertex="1" parent="1">
          <mxGeometry x="560" y="145" width="20" height="10" as="geometry" />
        </mxCell>
        <mxCell id="TDs0_VGNjXDJmlck_7jA-37" value="M" style="text;strokeColor=none;align=center;fillColor=none;html=1;verticalAlign=middle;whiteSpace=wrap;rounded=0;" vertex="1" parent="1">
          <mxGeometry x="740" y="145" width="20" height="10" as="geometry" />
        </mxCell>
        <mxCell id="TDs0_VGNjXDJmlck_7jA-40" style="edgeStyle=orthogonalEdgeStyle;rounded=0;orthogonalLoop=1;jettySize=auto;html=1;entryX=0;entryY=0.5;entryDx=0;entryDy=0;" edge="1" parent="1" source="TDs0_VGNjXDJmlck_7jA-38" target="TDs0_VGNjXDJmlck_7jA-15">
          <mxGeometry relative="1" as="geometry">
            <Array as="points">
              <mxPoint x="520" y="320" />
            </Array>
          </mxGeometry>
        </mxCell>
        <mxCell id="TDs0_VGNjXDJmlck_7jA-38" value="send" style="rhombus;whiteSpace=wrap;html=1;" vertex="1" parent="1">
          <mxGeometry x="495" y="250" width="50" height="50" as="geometry" />
        </mxCell>
        <mxCell id="TDs0_VGNjXDJmlck_7jA-41" value="M" style="text;strokeColor=none;align=center;fillColor=none;html=1;verticalAlign=middle;whiteSpace=wrap;rounded=0;" vertex="1" parent="1">
          <mxGeometry x="520" y="205" width="20" height="10" as="geometry" />
        </mxCell>
        <mxCell id="TDs0_VGNjXDJmlck_7jA-42" value="N" style="text;strokeColor=none;align=center;fillColor=none;html=1;verticalAlign=middle;whiteSpace=wrap;rounded=0;" vertex="1" parent="1">
          <mxGeometry x="600" y="305" width="20" height="10" as="geometry" />
        </mxCell>
        <mxCell id="TDs0_VGNjXDJmlck_7jA-45" style="edgeStyle=orthogonalEdgeStyle;rounded=0;orthogonalLoop=1;jettySize=auto;html=1;entryX=0.5;entryY=1;entryDx=0;entryDy=0;" edge="1" parent="1" source="TDs0_VGNjXDJmlck_7jA-43" target="TDs0_VGNjXDJmlck_7jA-14">
          <mxGeometry relative="1" as="geometry" />
        </mxCell>
        <mxCell id="TDs0_VGNjXDJmlck_7jA-43" value="has" style="rhombus;whiteSpace=wrap;html=1;" vertex="1" parent="1">
          <mxGeometry x="775" y="250" width="50" height="50" as="geometry" />
        </mxCell>
        <mxCell id="TDs0_VGNjXDJmlck_7jA-46" value="1" style="text;strokeColor=none;align=center;fillColor=none;html=1;verticalAlign=middle;whiteSpace=wrap;rounded=0;" vertex="1" parent="1">
          <mxGeometry x="710" y="305" width="20" height="10" as="geometry" />
        </mxCell>
        <mxCell id="TDs0_VGNjXDJmlck_7jA-47" value="M" style="text;strokeColor=none;align=center;fillColor=none;html=1;verticalAlign=middle;whiteSpace=wrap;rounded=0;" vertex="1" parent="1">
          <mxGeometry x="780" y="210" width="20" height="10" as="geometry" />
        </mxCell>
      </root>
    </mxGraphModel>
  </diagram>
</mxfile>
